<mxfile host="app.diagrams.net" modified="2024-03-18T17:20:14.293Z" agent="Mozilla/5.0 (Windows NT 10.0; Win64; x64) AppleWebKit/537.36 (KHTML, like Gecko) Chrome/122.0.0.0 Safari/537.36 Edg/122.0.0.0" etag="SxUAviNPt5IMkUrzgW6h" version="24.0.7" type="github">
  <diagram name="PÃ¡gina-1" id="KQwpbQ9i_a1BtApClrWy">
    <mxGraphModel dx="4506" dy="2755" grid="1" gridSize="10" guides="1" tooltips="1" connect="1" arrows="1" fold="1" page="1" pageScale="1" pageWidth="827" pageHeight="1169" math="0" shadow="0">
      <root>
        <mxCell id="0" />
        <mxCell id="1" parent="0" />
        <mxCell id="RHrHVaiQjJZBg-y2Oaoj-41" value="" style="ellipse;whiteSpace=wrap;html=1;fillColor=#bac8d3;strokeColor=#23445d;" parent="1" vertex="1">
          <mxGeometry x="590" y="-205" width="130" height="90" as="geometry" />
        </mxCell>
        <mxCell id="RHrHVaiQjJZBg-y2Oaoj-15" value="" style="ellipse;whiteSpace=wrap;html=1;fillColor=#bac8d3;strokeColor=#23445d;" parent="1" vertex="1">
          <mxGeometry x="510" y="-325" width="140" height="100" as="geometry" />
        </mxCell>
        <mxCell id="RHrHVaiQjJZBg-y2Oaoj-98" style="edgeStyle=orthogonalEdgeStyle;rounded=0;orthogonalLoop=1;jettySize=auto;html=1;" parent="1" source="RHrHVaiQjJZBg-y2Oaoj-1" target="RHrHVaiQjJZBg-y2Oaoj-99" edge="1">
          <mxGeometry relative="1" as="geometry">
            <mxPoint x="530" y="300" as="targetPoint" />
          </mxGeometry>
        </mxCell>
        <mxCell id="RHrHVaiQjJZBg-y2Oaoj-122" style="edgeStyle=orthogonalEdgeStyle;rounded=0;orthogonalLoop=1;jettySize=auto;html=1;exitX=0;exitY=0.5;exitDx=0;exitDy=0;entryX=1;entryY=0.5;entryDx=0;entryDy=0;" parent="1" source="RHrHVaiQjJZBg-y2Oaoj-1" target="RHrHVaiQjJZBg-y2Oaoj-97" edge="1">
          <mxGeometry relative="1" as="geometry" />
        </mxCell>
        <mxCell id="RHrHVaiQjJZBg-y2Oaoj-1" value="cliente" style="rounded=0;whiteSpace=wrap;html=1;fillColor=#bac8d3;strokeColor=#23445d;" parent="1" vertex="1">
          <mxGeometry x="430" y="-80" width="120" height="60" as="geometry" />
        </mxCell>
        <mxCell id="RHrHVaiQjJZBg-y2Oaoj-90" style="edgeStyle=orthogonalEdgeStyle;rounded=0;orthogonalLoop=1;jettySize=auto;html=1;entryX=0.5;entryY=0;entryDx=0;entryDy=0;exitX=0.5;exitY=1;exitDx=0;exitDy=0;" parent="1" source="RHrHVaiQjJZBg-y2Oaoj-2" target="RHrHVaiQjJZBg-y2Oaoj-92" edge="1">
          <mxGeometry relative="1" as="geometry">
            <mxPoint x="-890" y="530" as="targetPoint" />
            <mxPoint x="-1140" y="160" as="sourcePoint" />
          </mxGeometry>
        </mxCell>
        <mxCell id="RHrHVaiQjJZBg-y2Oaoj-108" style="edgeStyle=orthogonalEdgeStyle;rounded=0;orthogonalLoop=1;jettySize=auto;html=1;exitX=0;exitY=0.75;exitDx=0;exitDy=0;" parent="1" source="RHrHVaiQjJZBg-y2Oaoj-2" target="RHrHVaiQjJZBg-y2Oaoj-109" edge="1">
          <mxGeometry relative="1" as="geometry">
            <mxPoint x="-1412" y="420" as="targetPoint" />
          </mxGeometry>
        </mxCell>
        <mxCell id="RHrHVaiQjJZBg-y2Oaoj-111" style="edgeStyle=orthogonalEdgeStyle;rounded=0;orthogonalLoop=1;jettySize=auto;html=1;entryX=0;entryY=0.5;entryDx=0;entryDy=0;" parent="1" source="RHrHVaiQjJZBg-y2Oaoj-2" target="RHrHVaiQjJZBg-y2Oaoj-97" edge="1">
          <mxGeometry relative="1" as="geometry" />
        </mxCell>
        <mxCell id="RHrHVaiQjJZBg-y2Oaoj-2" value="producto" style="rounded=0;whiteSpace=wrap;html=1;fillColor=#f8cecc;strokeColor=#b85450;shadow=1;textShadow=1;" parent="1" vertex="1">
          <mxGeometry x="-1250" y="-80" width="110" height="60" as="geometry" />
        </mxCell>
        <mxCell id="RHrHVaiQjJZBg-y2Oaoj-91" style="edgeStyle=orthogonalEdgeStyle;rounded=0;orthogonalLoop=1;jettySize=auto;html=1;exitX=0.5;exitY=0;exitDx=0;exitDy=0;entryX=0.5;entryY=1;entryDx=0;entryDy=0;shadow=1;textShadow=1;" parent="1" source="RHrHVaiQjJZBg-y2Oaoj-3" target="RHrHVaiQjJZBg-y2Oaoj-92" edge="1">
          <mxGeometry relative="1" as="geometry">
            <mxPoint x="-525" y="540" as="targetPoint" />
          </mxGeometry>
        </mxCell>
        <mxCell id="RHrHVaiQjJZBg-y2Oaoj-127" style="edgeStyle=orthogonalEdgeStyle;rounded=0;orthogonalLoop=1;jettySize=auto;html=1;entryX=0.5;entryY=0;entryDx=0;entryDy=0;" parent="1" source="RHrHVaiQjJZBg-y2Oaoj-3" target="RHrHVaiQjJZBg-y2Oaoj-126" edge="1">
          <mxGeometry relative="1" as="geometry" />
        </mxCell>
        <mxCell id="RHrHVaiQjJZBg-y2Oaoj-3" value="proveedor" style="rounded=0;whiteSpace=wrap;html=1;fillColor=#d5e8d4;strokeColor=#82b366;shadow=1;textShadow=1;" parent="1" vertex="1">
          <mxGeometry x="-585" y="790" width="120" height="60" as="geometry" />
        </mxCell>
        <mxCell id="RHrHVaiQjJZBg-y2Oaoj-100" style="edgeStyle=orthogonalEdgeStyle;rounded=0;orthogonalLoop=1;jettySize=auto;html=1;exitX=1;exitY=0;exitDx=0;exitDy=0;entryX=0.5;entryY=1;entryDx=0;entryDy=0;" parent="1" source="RHrHVaiQjJZBg-y2Oaoj-5" target="RHrHVaiQjJZBg-y2Oaoj-99" edge="1">
          <mxGeometry relative="1" as="geometry">
            <mxPoint x="544" y="455" as="targetPoint" />
          </mxGeometry>
        </mxCell>
        <mxCell id="RHrHVaiQjJZBg-y2Oaoj-5" value="orden" style="rounded=0;whiteSpace=wrap;html=1;fillColor=#fff2cc;strokeColor=#d6b656;" parent="1" vertex="1">
          <mxGeometry x="370" y="950" width="120" height="60" as="geometry" />
        </mxCell>
        <mxCell id="RHrHVaiQjJZBg-y2Oaoj-8" value="" style="endArrow=none;html=1;rounded=0;exitX=0;exitY=0.5;exitDx=0;exitDy=0;entryX=1;entryY=0.5;entryDx=0;entryDy=0;fillColor=#bac8d3;strokeColor=#23445d;" parent="1" source="RHrHVaiQjJZBg-y2Oaoj-1" target="RHrHVaiQjJZBg-y2Oaoj-11" edge="1">
          <mxGeometry width="50" height="50" relative="1" as="geometry">
            <mxPoint x="460" y="-155" as="sourcePoint" />
            <mxPoint x="450" y="-265" as="targetPoint" />
          </mxGeometry>
        </mxCell>
        <mxCell id="RHrHVaiQjJZBg-y2Oaoj-9" value="" style="endArrow=none;html=1;rounded=0;exitX=0.5;exitY=0;exitDx=0;exitDy=0;entryX=0.5;entryY=1;entryDx=0;entryDy=0;fillColor=#bac8d3;strokeColor=#23445d;" parent="1" source="RHrHVaiQjJZBg-y2Oaoj-1" target="RHrHVaiQjJZBg-y2Oaoj-12" edge="1">
          <mxGeometry width="50" height="50" relative="1" as="geometry">
            <mxPoint x="500" y="-175" as="sourcePoint" />
            <mxPoint x="480" y="-245" as="targetPoint" />
          </mxGeometry>
        </mxCell>
        <mxCell id="RHrHVaiQjJZBg-y2Oaoj-10" value="" style="endArrow=none;html=1;rounded=0;fillColor=#bac8d3;strokeColor=#23445d;exitX=0.5;exitY=0;exitDx=0;exitDy=0;" parent="1" source="RHrHVaiQjJZBg-y2Oaoj-1" target="RHrHVaiQjJZBg-y2Oaoj-15" edge="1">
          <mxGeometry width="50" height="50" relative="1" as="geometry">
            <mxPoint x="520" y="-165" as="sourcePoint" />
            <mxPoint x="530" y="-245" as="targetPoint" />
          </mxGeometry>
        </mxCell>
        <mxCell id="RHrHVaiQjJZBg-y2Oaoj-11" value="&lt;u&gt;ClienteID&lt;/u&gt;" style="ellipse;whiteSpace=wrap;html=1;fillColor=#bac8d3;strokeColor=#23445d;" parent="1" vertex="1">
          <mxGeometry x="210" y="-225" width="120" height="80" as="geometry" />
        </mxCell>
        <mxCell id="RHrHVaiQjJZBg-y2Oaoj-12" value="nombre_completo" style="ellipse;whiteSpace=wrap;html=1;fillColor=#bac8d3;strokeColor=#23445d;" parent="1" vertex="1">
          <mxGeometry x="310" y="-315" width="120" height="80" as="geometry" />
        </mxCell>
        <mxCell id="RHrHVaiQjJZBg-y2Oaoj-13" value="direccion" style="ellipse;whiteSpace=wrap;html=1;fillColor=#bac8d3;strokeColor=#23445d;" parent="1" vertex="1">
          <mxGeometry x="440" y="-405" width="120" height="80" as="geometry" />
        </mxCell>
        <mxCell id="RHrHVaiQjJZBg-y2Oaoj-14" value="telefono" style="ellipse;whiteSpace=wrap;html=1;fillColor=#bac8d3;strokeColor=#23445d;" parent="1" vertex="1">
          <mxGeometry x="520" y="-315" width="120" height="80" as="geometry" />
        </mxCell>
        <mxCell id="RHrHVaiQjJZBg-y2Oaoj-16" value="" style="endArrow=none;html=1;rounded=0;exitX=0.592;exitY=-0.083;exitDx=0;exitDy=0;exitPerimeter=0;fillColor=#bac8d3;strokeColor=#23445d;" parent="1" source="RHrHVaiQjJZBg-y2Oaoj-1" target="RHrHVaiQjJZBg-y2Oaoj-13" edge="1">
          <mxGeometry width="50" height="50" relative="1" as="geometry">
            <mxPoint x="480" y="-135" as="sourcePoint" />
            <mxPoint x="480" y="-235" as="targetPoint" />
          </mxGeometry>
        </mxCell>
        <mxCell id="RHrHVaiQjJZBg-y2Oaoj-17" value="" style="endArrow=none;html=1;rounded=0;entryX=0.95;entryY=0.713;entryDx=0;entryDy=0;entryPerimeter=0;exitX=0.033;exitY=0.65;exitDx=0;exitDy=0;exitPerimeter=0;fillColor=#bac8d3;strokeColor=#23445d;" parent="1" source="RHrHVaiQjJZBg-y2Oaoj-12" target="RHrHVaiQjJZBg-y2Oaoj-19" edge="1">
          <mxGeometry width="50" height="50" relative="1" as="geometry">
            <mxPoint x="300" y="-265" as="sourcePoint" />
            <mxPoint x="240" y="-285" as="targetPoint" />
          </mxGeometry>
        </mxCell>
        <mxCell id="RHrHVaiQjJZBg-y2Oaoj-18" value="" style="endArrow=none;html=1;rounded=0;exitX=0;exitY=0;exitDx=0;exitDy=0;entryX=1;entryY=1;entryDx=0;entryDy=0;fillColor=#bac8d3;strokeColor=#23445d;" parent="1" source="RHrHVaiQjJZBg-y2Oaoj-12" target="RHrHVaiQjJZBg-y2Oaoj-20" edge="1">
          <mxGeometry width="50" height="50" relative="1" as="geometry">
            <mxPoint x="220" y="-295" as="sourcePoint" />
            <mxPoint x="380" y="-395" as="targetPoint" />
          </mxGeometry>
        </mxCell>
        <mxCell id="RHrHVaiQjJZBg-y2Oaoj-19" value="pnombre" style="ellipse;whiteSpace=wrap;html=1;fillColor=#bac8d3;strokeColor=#23445d;" parent="1" vertex="1">
          <mxGeometry x="130" y="-325" width="120" height="80" as="geometry" />
        </mxCell>
        <mxCell id="RHrHVaiQjJZBg-y2Oaoj-20" value="snombre" style="ellipse;whiteSpace=wrap;html=1;fillColor=#bac8d3;strokeColor=#23445d;" parent="1" vertex="1">
          <mxGeometry x="180" y="-415" width="120" height="80" as="geometry" />
        </mxCell>
        <mxCell id="RHrHVaiQjJZBg-y2Oaoj-21" value="papellido" style="ellipse;whiteSpace=wrap;html=1;fillColor=#bac8d3;strokeColor=#23445d;" parent="1" vertex="1">
          <mxGeometry x="240" y="-515" width="120" height="80" as="geometry" />
        </mxCell>
        <mxCell id="RHrHVaiQjJZBg-y2Oaoj-22" value="sapellido" style="ellipse;whiteSpace=wrap;html=1;fillColor=#bac8d3;strokeColor=#23445d;" parent="1" vertex="1">
          <mxGeometry x="360" y="-505" width="120" height="80" as="geometry" />
        </mxCell>
        <mxCell id="RHrHVaiQjJZBg-y2Oaoj-23" value="" style="endArrow=none;html=1;rounded=0;exitX=0.408;exitY=-0.037;exitDx=0;exitDy=0;exitPerimeter=0;entryX=0.5;entryY=1;entryDx=0;entryDy=0;fillColor=#bac8d3;strokeColor=#23445d;" parent="1" source="RHrHVaiQjJZBg-y2Oaoj-12" target="RHrHVaiQjJZBg-y2Oaoj-21" edge="1">
          <mxGeometry width="50" height="50" relative="1" as="geometry">
            <mxPoint x="240" y="-365" as="sourcePoint" />
            <mxPoint x="240" y="-465" as="targetPoint" />
          </mxGeometry>
        </mxCell>
        <mxCell id="RHrHVaiQjJZBg-y2Oaoj-24" value="" style="endArrow=none;html=1;rounded=0;exitX=0.642;exitY=-0.05;exitDx=0;exitDy=0;exitPerimeter=0;entryX=0.558;entryY=1.038;entryDx=0;entryDy=0;entryPerimeter=0;fillColor=#bac8d3;strokeColor=#23445d;" parent="1" source="RHrHVaiQjJZBg-y2Oaoj-12" target="RHrHVaiQjJZBg-y2Oaoj-22" edge="1">
          <mxGeometry width="50" height="50" relative="1" as="geometry">
            <mxPoint x="369.5" y="-355" as="sourcePoint" />
            <mxPoint x="369.5" y="-455" as="targetPoint" />
          </mxGeometry>
        </mxCell>
        <mxCell id="RHrHVaiQjJZBg-y2Oaoj-25" value="" style="endArrow=none;html=1;rounded=0;exitX=0;exitY=0;exitDx=0;exitDy=0;entryX=0.5;entryY=1;entryDx=0;entryDy=0;fillColor=#f8cecc;strokeColor=#b85450;shadow=1;textShadow=1;" parent="1" source="RHrHVaiQjJZBg-y2Oaoj-2" target="RHrHVaiQjJZBg-y2Oaoj-29" edge="1">
          <mxGeometry width="50" height="50" relative="1" as="geometry">
            <mxPoint x="-1240" y="-80" as="sourcePoint" />
            <mxPoint x="-1240" y="-180" as="targetPoint" />
          </mxGeometry>
        </mxCell>
        <mxCell id="RHrHVaiQjJZBg-y2Oaoj-26" value="" style="endArrow=none;html=1;rounded=0;exitX=0.25;exitY=0;exitDx=0;exitDy=0;entryX=0.5;entryY=1;entryDx=0;entryDy=0;fillColor=#f8cecc;strokeColor=#b85450;shadow=1;textShadow=1;" parent="1" source="RHrHVaiQjJZBg-y2Oaoj-2" target="RHrHVaiQjJZBg-y2Oaoj-31" edge="1">
          <mxGeometry width="50" height="50" relative="1" as="geometry">
            <mxPoint x="-1190" y="-80" as="sourcePoint" />
            <mxPoint x="-1190" y="-180" as="targetPoint" />
          </mxGeometry>
        </mxCell>
        <mxCell id="RHrHVaiQjJZBg-y2Oaoj-28" value="" style="endArrow=none;html=1;rounded=0;exitX=0.5;exitY=0;exitDx=0;exitDy=0;entryX=0.45;entryY=1.038;entryDx=0;entryDy=0;entryPerimeter=0;fillColor=#f8cecc;strokeColor=#b85450;shadow=1;textShadow=1;" parent="1" source="RHrHVaiQjJZBg-y2Oaoj-2" target="RHrHVaiQjJZBg-y2Oaoj-33" edge="1">
          <mxGeometry width="50" height="50" relative="1" as="geometry">
            <mxPoint x="-1020" y="40" as="sourcePoint" />
            <mxPoint x="-1110" y="-160" as="targetPoint" />
          </mxGeometry>
        </mxCell>
        <mxCell id="RHrHVaiQjJZBg-y2Oaoj-29" value="&lt;u&gt;ProductoID&lt;/u&gt;" style="ellipse;whiteSpace=wrap;html=1;fillColor=#f8cecc;strokeColor=#b85450;shadow=1;textShadow=1;" parent="1" vertex="1">
          <mxGeometry x="-1420" y="-190" width="120" height="80" as="geometry" />
        </mxCell>
        <mxCell id="RHrHVaiQjJZBg-y2Oaoj-31" value="tipoproducto" style="ellipse;whiteSpace=wrap;html=1;fillColor=#f8cecc;strokeColor=#b85450;shadow=1;textShadow=1;" parent="1" vertex="1">
          <mxGeometry x="-1200" y="-305" width="120" height="80" as="geometry" />
        </mxCell>
        <mxCell id="RHrHVaiQjJZBg-y2Oaoj-33" value="Tipopresentacion" style="ellipse;whiteSpace=wrap;html=1;fillColor=#f8cecc;strokeColor=#b85450;shadow=1;textShadow=1;" parent="1" vertex="1">
          <mxGeometry x="-1100" y="-260" width="120" height="80" as="geometry" />
        </mxCell>
        <mxCell id="RHrHVaiQjJZBg-y2Oaoj-34" value="Precio" style="ellipse;whiteSpace=wrap;html=1;fillColor=#f8cecc;strokeColor=#b85450;shadow=1;textShadow=1;" parent="1" vertex="1">
          <mxGeometry x="-1030" y="-150" width="120" height="80" as="geometry" />
        </mxCell>
        <mxCell id="RHrHVaiQjJZBg-y2Oaoj-36" value="" style="endArrow=none;html=1;rounded=0;exitX=1;exitY=0;exitDx=0;exitDy=0;entryX=0;entryY=0.5;entryDx=0;entryDy=0;fillColor=#f8cecc;strokeColor=#b85450;shadow=1;textShadow=1;" parent="1" source="RHrHVaiQjJZBg-y2Oaoj-2" target="RHrHVaiQjJZBg-y2Oaoj-34" edge="1">
          <mxGeometry width="50" height="50" relative="1" as="geometry">
            <mxPoint x="-1090" y="-10" as="sourcePoint" />
            <mxPoint x="-1030" y="-80" as="targetPoint" />
          </mxGeometry>
        </mxCell>
        <mxCell id="RHrHVaiQjJZBg-y2Oaoj-39" value="correo" style="ellipse;whiteSpace=wrap;html=1;fillColor=#bac8d3;strokeColor=#23445d;" parent="1" vertex="1">
          <mxGeometry x="595" y="-200" width="120" height="80" as="geometry" />
        </mxCell>
        <mxCell id="RHrHVaiQjJZBg-y2Oaoj-40" value="" style="endArrow=none;html=1;rounded=0;exitX=1;exitY=0.5;exitDx=0;exitDy=0;entryX=0.042;entryY=0.725;entryDx=0;entryDy=0;entryPerimeter=0;fillColor=#bac8d3;strokeColor=#23445d;" parent="1" source="RHrHVaiQjJZBg-y2Oaoj-1" target="RHrHVaiQjJZBg-y2Oaoj-39" edge="1">
          <mxGeometry width="50" height="50" relative="1" as="geometry">
            <mxPoint x="639" y="-65" as="sourcePoint" />
            <mxPoint x="639" y="-165" as="targetPoint" />
          </mxGeometry>
        </mxCell>
        <mxCell id="RHrHVaiQjJZBg-y2Oaoj-42" value="" style="endArrow=none;html=1;rounded=0;exitX=0;exitY=0;exitDx=0;exitDy=0;entryX=0.5;entryY=1;entryDx=0;entryDy=0;fillColor=#d5e8d4;strokeColor=#82b366;shadow=1;textShadow=1;" parent="1" source="RHrHVaiQjJZBg-y2Oaoj-3" target="RHrHVaiQjJZBg-y2Oaoj-47" edge="1">
          <mxGeometry width="50" height="50" relative="1" as="geometry">
            <mxPoint x="-600" y="650" as="sourcePoint" />
            <mxPoint x="-610" y="680" as="targetPoint" />
          </mxGeometry>
        </mxCell>
        <mxCell id="RHrHVaiQjJZBg-y2Oaoj-43" value="" style="endArrow=none;html=1;rounded=0;exitX=0.325;exitY=-0.033;exitDx=0;exitDy=0;exitPerimeter=0;entryX=0.558;entryY=1.013;entryDx=0;entryDy=0;entryPerimeter=0;fillColor=#d5e8d4;strokeColor=#82b366;shadow=1;textShadow=1;" parent="1" source="RHrHVaiQjJZBg-y2Oaoj-3" target="RHrHVaiQjJZBg-y2Oaoj-48" edge="1">
          <mxGeometry width="50" height="50" relative="1" as="geometry">
            <mxPoint x="-510" y="730" as="sourcePoint" />
            <mxPoint x="-550" y="630" as="targetPoint" />
          </mxGeometry>
        </mxCell>
        <mxCell id="RHrHVaiQjJZBg-y2Oaoj-44" value="" style="endArrow=none;html=1;rounded=0;exitX=0.65;exitY=-0.033;exitDx=0;exitDy=0;exitPerimeter=0;entryX=0.5;entryY=1;entryDx=0;entryDy=0;fillColor=#d5e8d4;strokeColor=#82b366;shadow=1;textShadow=1;" parent="1" source="RHrHVaiQjJZBg-y2Oaoj-3" target="RHrHVaiQjJZBg-y2Oaoj-50" edge="1">
          <mxGeometry width="50" height="50" relative="1" as="geometry">
            <mxPoint x="-370" y="760" as="sourcePoint" />
            <mxPoint x="-490" y="640" as="targetPoint" />
          </mxGeometry>
        </mxCell>
        <mxCell id="RHrHVaiQjJZBg-y2Oaoj-45" value="" style="endArrow=none;html=1;rounded=0;exitX=1;exitY=0;exitDx=0;exitDy=0;entryX=0.5;entryY=1;entryDx=0;entryDy=0;fillColor=#d5e8d4;strokeColor=#82b366;shadow=1;textShadow=1;" parent="1" source="RHrHVaiQjJZBg-y2Oaoj-3" target="RHrHVaiQjJZBg-y2Oaoj-51" edge="1">
          <mxGeometry width="50" height="50" relative="1" as="geometry">
            <mxPoint x="-310.5" y="770" as="sourcePoint" />
            <mxPoint x="-430" y="650" as="targetPoint" />
          </mxGeometry>
        </mxCell>
        <mxCell id="RHrHVaiQjJZBg-y2Oaoj-47" value="&lt;u&gt;ProveedorID&lt;/u&gt;" style="ellipse;whiteSpace=wrap;html=1;fillColor=#d5e8d4;strokeColor=#82b366;shadow=1;textShadow=1;" parent="1" vertex="1">
          <mxGeometry x="-760" y="825" width="120" height="80" as="geometry" />
        </mxCell>
        <mxCell id="RHrHVaiQjJZBg-y2Oaoj-48" value="Nombre Completo" style="ellipse;whiteSpace=wrap;html=1;fillColor=#d5e8d4;strokeColor=#82b366;shadow=1;textShadow=1;" parent="1" vertex="1">
          <mxGeometry x="-650" y="670" width="120" height="80" as="geometry" />
        </mxCell>
        <mxCell id="RHrHVaiQjJZBg-y2Oaoj-50" value="direccion" style="ellipse;whiteSpace=wrap;html=1;fillColor=#d5e8d4;strokeColor=#82b366;shadow=1;textShadow=1;" parent="1" vertex="1">
          <mxGeometry x="-500" y="665" width="120" height="80" as="geometry" />
        </mxCell>
        <mxCell id="RHrHVaiQjJZBg-y2Oaoj-51" value="telefono" style="ellipse;whiteSpace=wrap;html=1;fillColor=#d5e8d4;strokeColor=#82b366;shadow=1;textShadow=1;" parent="1" vertex="1">
          <mxGeometry x="-395" y="742.5" width="115" height="87.5" as="geometry" />
        </mxCell>
        <mxCell id="RHrHVaiQjJZBg-y2Oaoj-53" value="" style="endArrow=none;html=1;rounded=0;exitX=0;exitY=0;exitDx=0;exitDy=0;fillColor=#fff2cc;strokeColor=#d6b656;" parent="1" source="RHrHVaiQjJZBg-y2Oaoj-5" target="RHrHVaiQjJZBg-y2Oaoj-58" edge="1">
          <mxGeometry width="50" height="50" relative="1" as="geometry">
            <mxPoint x="370" y="900" as="sourcePoint" />
            <mxPoint x="310" y="835" as="targetPoint" />
          </mxGeometry>
        </mxCell>
        <mxCell id="RHrHVaiQjJZBg-y2Oaoj-54" value="" style="endArrow=none;html=1;rounded=0;exitX=0.5;exitY=0;exitDx=0;exitDy=0;entryX=0.5;entryY=1;entryDx=0;entryDy=0;fillColor=#fff2cc;strokeColor=#d6b656;" parent="1" source="RHrHVaiQjJZBg-y2Oaoj-5" target="RHrHVaiQjJZBg-y2Oaoj-59" edge="1">
          <mxGeometry width="50" height="50" relative="1" as="geometry">
            <mxPoint x="470" y="765" as="sourcePoint" />
            <mxPoint x="420" y="825" as="targetPoint" />
          </mxGeometry>
        </mxCell>
        <mxCell id="RHrHVaiQjJZBg-y2Oaoj-55" value="" style="endArrow=none;html=1;rounded=0;exitX=0.942;exitY=-0.017;exitDx=0;exitDy=0;entryX=0.433;entryY=1.013;entryDx=0;entryDy=0;entryPerimeter=0;fillColor=#fff2cc;strokeColor=#d6b656;exitPerimeter=0;" parent="1" source="RHrHVaiQjJZBg-y2Oaoj-5" target="RHrHVaiQjJZBg-y2Oaoj-60" edge="1">
          <mxGeometry width="50" height="50" relative="1" as="geometry">
            <mxPoint x="480" y="775" as="sourcePoint" />
            <mxPoint x="480" y="855" as="targetPoint" />
          </mxGeometry>
        </mxCell>
        <mxCell id="RHrHVaiQjJZBg-y2Oaoj-58" value="&lt;u&gt;OrdenID&lt;/u&gt;" style="ellipse;whiteSpace=wrap;html=1;fillColor=#fff2cc;strokeColor=#d6b656;" parent="1" vertex="1">
          <mxGeometry x="200" y="865" width="120" height="80" as="geometry" />
        </mxCell>
        <mxCell id="RHrHVaiQjJZBg-y2Oaoj-59" value="FechaOrden" style="ellipse;whiteSpace=wrap;html=1;fillColor=#fff2cc;strokeColor=#d6b656;" parent="1" vertex="1">
          <mxGeometry x="370" y="820" width="120" height="80" as="geometry" />
        </mxCell>
        <mxCell id="RHrHVaiQjJZBg-y2Oaoj-60" value="Total" style="ellipse;whiteSpace=wrap;html=1;fillColor=#fff2cc;strokeColor=#d6b656;" parent="1" vertex="1">
          <mxGeometry x="560" y="885" width="120" height="80" as="geometry" />
        </mxCell>
        <mxCell id="RHrHVaiQjJZBg-y2Oaoj-63" value="" style="endArrow=none;html=1;rounded=0;exitX=0;exitY=0;exitDx=0;exitDy=0;entryX=0.642;entryY=1.025;entryDx=0;entryDy=0;entryPerimeter=0;fillColor=#fff2cc;strokeColor=#d6b656;" parent="1" source="RHrHVaiQjJZBg-y2Oaoj-59" target="RHrHVaiQjJZBg-y2Oaoj-67" edge="1">
          <mxGeometry width="50" height="50" relative="1" as="geometry">
            <mxPoint x="290" y="835" as="sourcePoint" />
            <mxPoint x="300" y="805" as="targetPoint" />
          </mxGeometry>
        </mxCell>
        <mxCell id="RHrHVaiQjJZBg-y2Oaoj-65" value="" style="endArrow=none;html=1;rounded=0;exitX=0.417;exitY=0.038;exitDx=0;exitDy=0;exitPerimeter=0;entryX=0.5;entryY=1;entryDx=0;entryDy=0;fillColor=#fff2cc;strokeColor=#d6b656;" parent="1" source="RHrHVaiQjJZBg-y2Oaoj-59" target="RHrHVaiQjJZBg-y2Oaoj-68" edge="1">
          <mxGeometry width="50" height="50" relative="1" as="geometry">
            <mxPoint x="398" y="785" as="sourcePoint" />
            <mxPoint x="360" y="755" as="targetPoint" />
          </mxGeometry>
        </mxCell>
        <mxCell id="RHrHVaiQjJZBg-y2Oaoj-66" value="" style="endArrow=none;html=1;rounded=0;exitX=0.642;exitY=0.013;exitDx=0;exitDy=0;exitPerimeter=0;entryX=0.425;entryY=1.05;entryDx=0;entryDy=0;entryPerimeter=0;fillColor=#fff2cc;strokeColor=#d6b656;" parent="1" source="RHrHVaiQjJZBg-y2Oaoj-59" target="RHrHVaiQjJZBg-y2Oaoj-69" edge="1">
          <mxGeometry width="50" height="50" relative="1" as="geometry">
            <mxPoint x="400" y="805" as="sourcePoint" />
            <mxPoint x="420" y="745" as="targetPoint" />
          </mxGeometry>
        </mxCell>
        <mxCell id="RHrHVaiQjJZBg-y2Oaoj-67" value="dia" style="ellipse;whiteSpace=wrap;html=1;fillColor=#fff2cc;strokeColor=#d6b656;" parent="1" vertex="1">
          <mxGeometry x="170" y="745" width="120" height="80" as="geometry" />
        </mxCell>
        <mxCell id="RHrHVaiQjJZBg-y2Oaoj-68" value="mes" style="ellipse;whiteSpace=wrap;html=1;fillColor=#fff2cc;strokeColor=#d6b656;" parent="1" vertex="1">
          <mxGeometry x="230" y="650" width="120" height="80" as="geometry" />
        </mxCell>
        <mxCell id="RHrHVaiQjJZBg-y2Oaoj-69" value="aÃ±o" style="ellipse;whiteSpace=wrap;html=1;fillColor=#fff2cc;strokeColor=#d6b656;" parent="1" vertex="1">
          <mxGeometry x="360" y="650" width="120" height="80" as="geometry" />
        </mxCell>
        <mxCell id="RHrHVaiQjJZBg-y2Oaoj-110" style="edgeStyle=orthogonalEdgeStyle;rounded=0;orthogonalLoop=1;jettySize=auto;html=1;entryX=0.5;entryY=1;entryDx=0;entryDy=0;" parent="1" source="RHrHVaiQjJZBg-y2Oaoj-76" target="RHrHVaiQjJZBg-y2Oaoj-109" edge="1">
          <mxGeometry relative="1" as="geometry" />
        </mxCell>
        <mxCell id="RHrHVaiQjJZBg-y2Oaoj-125" style="edgeStyle=orthogonalEdgeStyle;rounded=0;orthogonalLoop=1;jettySize=auto;html=1;" parent="1" source="RHrHVaiQjJZBg-y2Oaoj-76" target="RHrHVaiQjJZBg-y2Oaoj-126" edge="1">
          <mxGeometry relative="1" as="geometry">
            <mxPoint x="-1170" y="960" as="targetPoint" />
          </mxGeometry>
        </mxCell>
        <mxCell id="RHrHVaiQjJZBg-y2Oaoj-76" value="abastecimiento" style="rounded=0;whiteSpace=wrap;html=1;fillColor=#e1d5e7;strokeColor=#9673a6;shadow=1;textShadow=1;" parent="1" vertex="1">
          <mxGeometry x="-1240" y="1350" width="120" height="60" as="geometry" />
        </mxCell>
        <mxCell id="RHrHVaiQjJZBg-y2Oaoj-77" value="" style="endArrow=none;html=1;rounded=0;entryX=0.25;entryY=0;entryDx=0;entryDy=0;exitX=0;exitY=0.5;exitDx=0;exitDy=0;fillColor=#e1d5e7;strokeColor=#9673a6;shadow=1;textShadow=1;" parent="1" source="RHrHVaiQjJZBg-y2Oaoj-78" target="RHrHVaiQjJZBg-y2Oaoj-76" edge="1">
          <mxGeometry width="50" height="50" relative="1" as="geometry">
            <mxPoint x="-1410" y="1520" as="sourcePoint" />
            <mxPoint x="-1330" y="1310" as="targetPoint" />
          </mxGeometry>
        </mxCell>
        <mxCell id="RHrHVaiQjJZBg-y2Oaoj-78" value="&lt;u&gt;AbastecimientoID&lt;/u&gt;" style="ellipse;whiteSpace=wrap;html=1;fillColor=#e1d5e7;strokeColor=#9673a6;shadow=1;textShadow=1;" parent="1" vertex="1">
          <mxGeometry x="-1370" y="1250" width="120" height="80" as="geometry" />
        </mxCell>
        <mxCell id="RHrHVaiQjJZBg-y2Oaoj-79" value="" style="endArrow=none;html=1;rounded=0;entryX=0.567;entryY=-0.017;entryDx=0;entryDy=0;exitX=0.5;exitY=1;exitDx=0;exitDy=0;entryPerimeter=0;fillColor=#e1d5e7;strokeColor=#9673a6;shadow=1;textShadow=1;" parent="1" source="RHrHVaiQjJZBg-y2Oaoj-80" target="RHrHVaiQjJZBg-y2Oaoj-76" edge="1">
          <mxGeometry width="50" height="50" relative="1" as="geometry">
            <mxPoint x="-1200" y="1540" as="sourcePoint" />
            <mxPoint x="-1120" y="1330" as="targetPoint" />
          </mxGeometry>
        </mxCell>
        <mxCell id="RHrHVaiQjJZBg-y2Oaoj-80" value="FechaAbastecimiento" style="ellipse;whiteSpace=wrap;html=1;fillColor=#e1d5e7;strokeColor=#9673a6;shadow=1;textShadow=1;" parent="1" vertex="1">
          <mxGeometry x="-1230" y="1220" width="120" height="80" as="geometry" />
        </mxCell>
        <mxCell id="RHrHVaiQjJZBg-y2Oaoj-81" value="fecha" style="ellipse;whiteSpace=wrap;html=1;fillColor=#e1d5e7;strokeColor=#9673a6;shadow=1;textShadow=1;" parent="1" vertex="1">
          <mxGeometry x="-1300" y="745" width="120" height="80" as="geometry" />
        </mxCell>
        <mxCell id="RHrHVaiQjJZBg-y2Oaoj-82" value="" style="endArrow=none;html=1;rounded=0;entryX=0;entryY=1;entryDx=0;entryDy=0;exitX=1;exitY=0;exitDx=0;exitDy=0;fillColor=#e1d5e7;strokeColor=#9673a6;shadow=1;textShadow=1;" parent="1" source="RHrHVaiQjJZBg-y2Oaoj-81" target="RHrHVaiQjJZBg-y2Oaoj-85" edge="1">
          <mxGeometry width="50" height="50" relative="1" as="geometry">
            <mxPoint x="-960" y="815" as="sourcePoint" />
            <mxPoint x="-990" y="795" as="targetPoint" />
          </mxGeometry>
        </mxCell>
        <mxCell id="RHrHVaiQjJZBg-y2Oaoj-83" value="" style="endArrow=none;html=1;rounded=0;entryX=0;entryY=0.5;entryDx=0;entryDy=0;exitX=1;exitY=0.413;exitDx=0;exitDy=0;exitPerimeter=0;fillColor=#e1d5e7;strokeColor=#9673a6;shadow=1;textShadow=1;" parent="1" source="RHrHVaiQjJZBg-y2Oaoj-81" target="RHrHVaiQjJZBg-y2Oaoj-86" edge="1">
          <mxGeometry width="50" height="50" relative="1" as="geometry">
            <mxPoint x="-990" y="815" as="sourcePoint" />
            <mxPoint x="-930" y="745" as="targetPoint" />
          </mxGeometry>
        </mxCell>
        <mxCell id="RHrHVaiQjJZBg-y2Oaoj-84" value="" style="endArrow=none;html=1;rounded=0;entryX=0;entryY=0.5;entryDx=0;entryDy=0;exitX=0.833;exitY=0.938;exitDx=0;exitDy=0;exitPerimeter=0;fillColor=#e1d5e7;strokeColor=#9673a6;shadow=1;textShadow=1;" parent="1" source="RHrHVaiQjJZBg-y2Oaoj-81" target="RHrHVaiQjJZBg-y2Oaoj-87" edge="1">
          <mxGeometry width="50" height="50" relative="1" as="geometry">
            <mxPoint x="-1020" y="885" as="sourcePoint" />
            <mxPoint x="-870" y="735" as="targetPoint" />
            <Array as="points" />
          </mxGeometry>
        </mxCell>
        <mxCell id="RHrHVaiQjJZBg-y2Oaoj-85" value="dia" style="ellipse;whiteSpace=wrap;html=1;fillColor=#e1d5e7;strokeColor=#9673a6;shadow=1;textShadow=1;" parent="1" vertex="1">
          <mxGeometry x="-1240" y="530" width="120" height="80" as="geometry" />
        </mxCell>
        <mxCell id="RHrHVaiQjJZBg-y2Oaoj-86" value="mes" style="ellipse;whiteSpace=wrap;html=1;fillColor=#e1d5e7;strokeColor=#9673a6;shadow=1;textShadow=1;" parent="1" vertex="1">
          <mxGeometry x="-1100" y="670" width="120" height="80" as="geometry" />
        </mxCell>
        <mxCell id="RHrHVaiQjJZBg-y2Oaoj-87" value="aÃ±o" style="ellipse;whiteSpace=wrap;html=1;fillColor=#e1d5e7;strokeColor=#9673a6;shadow=1;textShadow=1;" parent="1" vertex="1">
          <mxGeometry x="-1110" y="840" width="120" height="80" as="geometry" />
        </mxCell>
        <mxCell id="RHrHVaiQjJZBg-y2Oaoj-88" value="" style="endArrow=none;html=1;rounded=0;exitX=0.5;exitY=1;exitDx=0;exitDy=0;fillColor=#e1d5e7;strokeColor=#9673a6;shadow=1;textShadow=1;entryX=0;entryY=0.5;entryDx=0;entryDy=0;" parent="1" source="RHrHVaiQjJZBg-y2Oaoj-109" target="RHrHVaiQjJZBg-y2Oaoj-81" edge="1">
          <mxGeometry width="50" height="50" relative="1" as="geometry">
            <mxPoint x="-890" y="1420" as="sourcePoint" />
            <mxPoint x="-1120" y="810" as="targetPoint" />
          </mxGeometry>
        </mxCell>
        <mxCell id="RHrHVaiQjJZBg-y2Oaoj-92" value="suministra" style="rhombus;whiteSpace=wrap;html=1;" parent="1" vertex="1">
          <mxGeometry x="-590" y="385" width="130" height="120" as="geometry" />
        </mxCell>
        <mxCell id="WEBmH5VU2pFxO5jcTuwv-1" style="edgeStyle=orthogonalEdgeStyle;rounded=0;orthogonalLoop=1;jettySize=auto;html=1;entryX=0.5;entryY=0;entryDx=0;entryDy=0;" edge="1" parent="1" source="RHrHVaiQjJZBg-y2Oaoj-97" target="WEBmH5VU2pFxO5jcTuwv-3">
          <mxGeometry relative="1" as="geometry">
            <mxPoint x="-250" y="345" as="targetPoint" />
          </mxGeometry>
        </mxCell>
        <mxCell id="RHrHVaiQjJZBg-y2Oaoj-97" value="COMPRA" style="rhombus;whiteSpace=wrap;html=1;" parent="1" vertex="1">
          <mxGeometry x="-560" y="-135" width="160" height="170" as="geometry" />
        </mxCell>
        <mxCell id="RHrHVaiQjJZBg-y2Oaoj-99" value="puede ralizar" style="rhombus;whiteSpace=wrap;html=1;" parent="1" vertex="1">
          <mxGeometry x="430" y="190" width="120" height="130" as="geometry" />
        </mxCell>
        <mxCell id="RHrHVaiQjJZBg-y2Oaoj-109" value="puede ser" style="rhombus;whiteSpace=wrap;html=1;" parent="1" vertex="1">
          <mxGeometry x="-1460" y="675" width="130" height="110" as="geometry" />
        </mxCell>
        <mxCell id="RHrHVaiQjJZBg-y2Oaoj-113" value="n:n" style="text;html=1;align=center;verticalAlign=middle;whiteSpace=wrap;rounded=0;shadow=1;textShadow=1;" parent="1" vertex="1">
          <mxGeometry x="-1140" y="-87.5" width="90" height="30" as="geometry" />
        </mxCell>
        <mxCell id="RHrHVaiQjJZBg-y2Oaoj-115" value="n:n" style="text;html=1;align=center;verticalAlign=middle;whiteSpace=wrap;rounded=0;" parent="1" vertex="1">
          <mxGeometry x="-595" y="-230" width="230" height="125" as="geometry" />
        </mxCell>
        <mxCell id="RHrHVaiQjJZBg-y2Oaoj-116" value="n" style="text;html=1;align=center;verticalAlign=middle;whiteSpace=wrap;rounded=0;shadow=1;textShadow=1;" parent="1" vertex="1">
          <mxGeometry x="-1200" y="-10" width="60" height="30" as="geometry" />
        </mxCell>
        <mxCell id="RHrHVaiQjJZBg-y2Oaoj-117" value="1" style="text;html=1;align=center;verticalAlign=middle;whiteSpace=wrap;rounded=0;shadow=1;textShadow=1;" parent="1" vertex="1">
          <mxGeometry x="-540" y="730" width="60" height="30" as="geometry" />
        </mxCell>
        <mxCell id="RHrHVaiQjJZBg-y2Oaoj-118" value="n:1" style="text;html=1;align=center;verticalAlign=middle;whiteSpace=wrap;rounded=0;fillColor=none;" parent="1" vertex="1">
          <mxGeometry x="-560" y="330" width="140" height="60" as="geometry" />
        </mxCell>
        <mxCell id="RHrHVaiQjJZBg-y2Oaoj-124" value="n:n" style="text;html=1;align=center;verticalAlign=middle;whiteSpace=wrap;rounded=0;" parent="1" vertex="1">
          <mxGeometry x="270" y="-87.5" width="90" height="30" as="geometry" />
        </mxCell>
        <mxCell id="RHrHVaiQjJZBg-y2Oaoj-126" value="realiza" style="rhombus;whiteSpace=wrap;html=1;" parent="1" vertex="1">
          <mxGeometry x="-613.75" y="1009" width="177.5" height="191" as="geometry" />
        </mxCell>
        <mxCell id="RHrHVaiQjJZBg-y2Oaoj-128" value="&lt;font style=&quot;font-size: 14px;&quot;&gt;n:1&lt;/font&gt;" style="text;html=1;align=center;verticalAlign=middle;whiteSpace=wrap;rounded=0;" parent="1" vertex="1">
          <mxGeometry x="-525" y="860" width="60" height="30" as="geometry" />
        </mxCell>
        <mxCell id="RHrHVaiQjJZBg-y2Oaoj-129" value="1:n" style="text;html=1;align=center;verticalAlign=middle;whiteSpace=wrap;rounded=0;shadow=1;textShadow=1;" parent="1" vertex="1">
          <mxGeometry x="-1120" y="1400" width="60" height="30" as="geometry" />
        </mxCell>
        <mxCell id="RHrHVaiQjJZBg-y2Oaoj-130" value="&lt;font style=&quot;font-size: 14px;&quot;&gt;n:1&lt;/font&gt;" style="text;html=1;align=center;verticalAlign=middle;whiteSpace=wrap;rounded=0;strokeWidth=1;" parent="1" vertex="1">
          <mxGeometry x="-715" y="965" width="230" height="125" as="geometry" />
        </mxCell>
        <mxCell id="RHrHVaiQjJZBg-y2Oaoj-131" value="1:n" style="text;html=1;align=center;verticalAlign=middle;whiteSpace=wrap;rounded=0;shadow=1;textShadow=1;" parent="1" vertex="1">
          <mxGeometry x="-1390" y="-30" width="60" height="30" as="geometry" />
        </mxCell>
        <mxCell id="RHrHVaiQjJZBg-y2Oaoj-132" value="&lt;font style=&quot;font-size: 14px;&quot;&gt;n:1&lt;/font&gt;" style="text;html=1;align=center;verticalAlign=middle;whiteSpace=wrap;rounded=0;" parent="1" vertex="1">
          <mxGeometry x="-1390" y="1180" width="60" height="30" as="geometry" />
        </mxCell>
        <mxCell id="RHrHVaiQjJZBg-y2Oaoj-134" value="&lt;font style=&quot;font-size: 14px;&quot;&gt;1:n&lt;/font&gt;" style="text;html=1;align=center;verticalAlign=middle;whiteSpace=wrap;rounded=0;strokeWidth=1;" parent="1" vertex="1">
          <mxGeometry x="-1480" y="597.5" width="230" height="125" as="geometry" />
        </mxCell>
        <mxCell id="RHrHVaiQjJZBg-y2Oaoj-136" value="&lt;font style=&quot;font-size: 14px;&quot;&gt;1:n&lt;/font&gt;" style="text;html=1;align=center;verticalAlign=middle;whiteSpace=wrap;rounded=0;" parent="1" vertex="1">
          <mxGeometry x="460" y="-10" width="90" height="30" as="geometry" />
        </mxCell>
        <mxCell id="RHrHVaiQjJZBg-y2Oaoj-137" value="&lt;font style=&quot;font-size: 14px;&quot;&gt;n:1&lt;/font&gt;" style="text;html=1;align=center;verticalAlign=middle;whiteSpace=wrap;rounded=0;" parent="1" vertex="1">
          <mxGeometry x="490" y="675" width="190" height="176" as="geometry" />
        </mxCell>
        <mxCell id="RHrHVaiQjJZBg-y2Oaoj-139" value="&lt;font style=&quot;font-size: 14px;&quot;&gt;1:n&lt;/font&gt;" style="text;html=1;align=center;verticalAlign=middle;whiteSpace=wrap;rounded=0;fillColor=none;" parent="1" vertex="1">
          <mxGeometry x="450" y="290" width="150" height="65" as="geometry" />
        </mxCell>
        <mxCell id="h3VSHQey5GweMX60ceLr-15" value="n:n" style="text;html=1;align=center;verticalAlign=middle;whiteSpace=wrap;rounded=0;shadow=1;textShadow=1;" parent="1" vertex="1">
          <mxGeometry x="-1480" y="-87.5" width="90" height="30" as="geometry" />
        </mxCell>
        <mxCell id="zEtrgit6qLJAudFie82b-4" value="" style="endArrow=none;html=1;rounded=0;exitX=0;exitY=1;exitDx=0;exitDy=0;entryX=0.825;entryY=0.908;entryDx=0;entryDy=0;entryPerimeter=0;" parent="1" source="RHrHVaiQjJZBg-y2Oaoj-48" target="zEtrgit6qLJAudFie82b-11" edge="1">
          <mxGeometry width="50" height="50" relative="1" as="geometry">
            <mxPoint x="-480" y="780" as="sourcePoint" />
            <mxPoint x="-716.3200000000002" y="703.3600000000001" as="targetPoint" />
          </mxGeometry>
        </mxCell>
        <mxCell id="zEtrgit6qLJAudFie82b-6" value="" style="endArrow=none;html=1;rounded=0;exitX=0;exitY=0;exitDx=0;exitDy=0;entryX=0.797;entryY=0.931;entryDx=0;entryDy=0;entryPerimeter=0;" parent="1" source="RHrHVaiQjJZBg-y2Oaoj-48" target="zEtrgit6qLJAudFie82b-12" edge="1">
          <mxGeometry width="50" height="50" relative="1" as="geometry">
            <mxPoint x="-636" y="647" as="sourcePoint" />
            <mxPoint x="-660.0699999999997" y="613.3600000000001" as="targetPoint" />
          </mxGeometry>
        </mxCell>
        <mxCell id="zEtrgit6qLJAudFie82b-11" value="Pnombre" style="ellipse;whiteSpace=wrap;html=1;fillColor=#d5e8d4;strokeColor=#82b366;" parent="1" vertex="1">
          <mxGeometry x="-760" y="705" width="120" height="80" as="geometry" />
        </mxCell>
        <mxCell id="zEtrgit6qLJAudFie82b-12" value="Snombre" style="ellipse;whiteSpace=wrap;html=1;align=center;fillColor=#d5e8d4;strokeColor=#82b366;" parent="1" vertex="1">
          <mxGeometry x="-790" y="620" width="120" height="80" as="geometry" />
        </mxCell>
        <mxCell id="zEtrgit6qLJAudFie82b-13" value="Papellido" style="ellipse;whiteSpace=wrap;html=1;fillColor=#d5e8d4;strokeColor=#82b366;" parent="1" vertex="1">
          <mxGeometry x="-765" y="530" width="120" height="80" as="geometry" />
        </mxCell>
        <mxCell id="zEtrgit6qLJAudFie82b-14" value="" style="endArrow=none;html=1;rounded=0;exitX=0.314;exitY=0.017;exitDx=0;exitDy=0;exitPerimeter=0;entryX=0.717;entryY=0.983;entryDx=0;entryDy=0;entryPerimeter=0;" parent="1" source="RHrHVaiQjJZBg-y2Oaoj-48" target="zEtrgit6qLJAudFie82b-13" edge="1">
          <mxGeometry width="50" height="50" relative="1" as="geometry">
            <mxPoint x="-587" y="678" as="sourcePoint" />
            <mxPoint x="-704" y="629" as="targetPoint" />
          </mxGeometry>
        </mxCell>
        <mxCell id="zEtrgit6qLJAudFie82b-16" value="Sapellido" style="ellipse;whiteSpace=wrap;html=1;fillColor=#d5e8d4;strokeColor=#82b366;" parent="1" vertex="1">
          <mxGeometry x="-645" y="530" width="120" height="80" as="geometry" />
        </mxCell>
        <mxCell id="zEtrgit6qLJAudFie82b-17" value="" style="endArrow=none;html=1;rounded=0;exitX=0.714;exitY=0.033;exitDx=0;exitDy=0;exitPerimeter=0;entryX=0.336;entryY=0.967;entryDx=0;entryDy=0;entryPerimeter=0;" parent="1" source="RHrHVaiQjJZBg-y2Oaoj-48" target="zEtrgit6qLJAudFie82b-16" edge="1">
          <mxGeometry width="50" height="50" relative="1" as="geometry">
            <mxPoint x="-602" y="681" as="sourcePoint" />
            <mxPoint x="-564" y="619" as="targetPoint" />
          </mxGeometry>
        </mxCell>
        <mxCell id="zEtrgit6qLJAudFie82b-18" value="Correo&amp;nbsp;" style="ellipse;whiteSpace=wrap;html=1;fillColor=#d5e8d4;strokeColor=#82b366;" parent="1" vertex="1">
          <mxGeometry x="-465" y="860" width="120" height="80" as="geometry" />
        </mxCell>
        <mxCell id="zEtrgit6qLJAudFie82b-21" value="" style="endArrow=none;html=1;rounded=0;entryX=0;entryY=0;entryDx=0;entryDy=0;exitX=1;exitY=0.894;exitDx=0;exitDy=0;exitPerimeter=0;" parent="1" source="RHrHVaiQjJZBg-y2Oaoj-3" target="zEtrgit6qLJAudFie82b-18" edge="1">
          <mxGeometry width="50" height="50" relative="1" as="geometry">
            <mxPoint x="-510" y="820" as="sourcePoint" />
            <mxPoint x="-460" y="770" as="targetPoint" />
          </mxGeometry>
        </mxCell>
        <mxCell id="zEtrgit6qLJAudFie82b-22" value="" style="endArrow=none;html=1;rounded=0;exitX=0.161;exitY=-0.039;exitDx=0;exitDy=0;entryX=0.5;entryY=1;entryDx=0;entryDy=0;fillColor=#f8cecc;strokeColor=#b85450;shadow=1;textShadow=1;exitPerimeter=0;" parent="1" source="RHrHVaiQjJZBg-y2Oaoj-2" target="zEtrgit6qLJAudFie82b-23" edge="1">
          <mxGeometry width="50" height="50" relative="1" as="geometry">
            <mxPoint x="-1260" y="-180" as="sourcePoint" />
            <mxPoint x="-1250" y="-280" as="targetPoint" />
          </mxGeometry>
        </mxCell>
        <mxCell id="zEtrgit6qLJAudFie82b-23" value="&lt;u&gt;Nombre&lt;/u&gt;" style="ellipse;whiteSpace=wrap;html=1;fillColor=#f8cecc;strokeColor=#b85450;shadow=1;textShadow=1;" parent="1" vertex="1">
          <mxGeometry x="-1330" y="-300" width="120" height="80" as="geometry" />
        </mxCell>
        <mxCell id="uHilVDiDkg8bHdSRbg8I-1" value="Factura" style="ellipse;whiteSpace=wrap;html=1;" parent="1" vertex="1">
          <mxGeometry x="310" y="160" width="120" height="80" as="geometry" />
        </mxCell>
        <mxCell id="uHilVDiDkg8bHdSRbg8I-2" value="" style="endArrow=none;html=1;rounded=0;exitX=0;exitY=0.5;exitDx=0;exitDy=0;entryX=0.75;entryY=0.988;entryDx=0;entryDy=0;entryPerimeter=0;" parent="1" source="RHrHVaiQjJZBg-y2Oaoj-99" target="uHilVDiDkg8bHdSRbg8I-1" edge="1">
          <mxGeometry width="50" height="50" relative="1" as="geometry">
            <mxPoint x="560" y="265" as="sourcePoint" />
            <mxPoint x="612" y="221" as="targetPoint" />
          </mxGeometry>
        </mxCell>
        <mxCell id="WEBmH5VU2pFxO5jcTuwv-3" value="detalle_orden" style="ellipse;whiteSpace=wrap;html=1;" vertex="1" parent="1">
          <mxGeometry x="-436.25" y="150" width="120" height="80" as="geometry" />
        </mxCell>
      </root>
    </mxGraphModel>
  </diagram>
</mxfile>
